# xmcd
#
# Track frame offsets:
# 150
# 25262
# 50189
# 92195
# 123084
# 150348
# 174441
# 199473
# 230900
# 252187
# 282609
# 311251
#
# Disc length: 4443 seconds
#
# Revision: 0
# Processed by: cddbd v1.4PL0 Copyright (c) Steve Scherf et al.
# Submitted via: Audion 3.0.2 (http://www.panic.com/audion/)
#
DISCID=a711590c
DTITLE=proeckmix - proeckmix
DYEAR=1900
DGENRE=
TTITLE0=proeckmix01
TTITLE1=proeckmix02
TTITLE2=proeckmix03
TTITLE3=proeckmix04
TTITLE4=proeckmix05
TTITLE5=proeckmix06
TTITLE6=proeckmix07
TTITLE7=proeckmix08
TTITLE8=proeckmix09
TTITLE9=proeckmix10
TTITLE10=proeckmix11
TTITLE11=proeckmix12
EXTD=
EXTT0=
EXTT1=
EXTT2=
EXTT3=
EXTT4=
EXTT5=
EXTT6=
EXTT7=
EXTT8=
EXTT9=
EXTT10=
EXTT11=
PLAYORDER=
